<svg xmlns="http://www.w3.org/2000/svg" viewBox="0 0 420 180" fill="none">
  <path d="M5 154C53 122 72 172 125 149s66-9 101 1 63-25 94-8 59 21 95-6" stroke="#badde9" stroke-width="3" stroke-linecap="round"/>
  <path d="M44 175c38-19 74 16 109-1s65-6 106 0 61-19 110-4" stroke="#d2c9ed" stroke-width="2" stroke-linecap="round"/>
  <circle cx="82" cy="57" r="7" fill="#edfaff" stroke="#a4d3df" stroke-width="2"/>
  <circle cx="108" cy="30" r="4" fill="#edfaff" stroke="#a4d3df" stroke-width="2"/>
  <circle cx="318" cy="103" r="5" fill="#edfaff" stroke="#a4d3df" stroke-width="2"/>
  <path d="m337 25 8 16 18 3-14 12 3 18-16-9-16 8 4-18-13-13 18-2z" fill="#f5c4d2" stroke="#de9fb3" stroke-width="2" stroke-linejoin="round"/>
  <path d="M255 91c20 0 24-22 49-27-1 20-7 34-29 36 11 11 7 26-1 35-15-11-19-26-24-28" fill="#a6bfdc" stroke="#7398c7" stroke-width="3" stroke-linejoin="round"/>
  <path d="M127 107c-20-45 4-79 48-79 58 0 95 31 88 71-6 37-39 44-77 37-21-4-47-8-59-29z" fill="#b5d8ed" stroke="#7398c7" stroke-width="3"/>
  <path d="M133 108c34 3 81 24 121-1-11 28-45 32-72 26-23-4-38-12-49-25z" fill="#e8f6fc"/>
  <path d="M187 95c-1 12-8 18-17 22" stroke="#7398c7" stroke-width="3" stroke-linecap="round"/>
  <circle cx="151" cy="81" r="4" fill="#344967"/>
  <ellipse cx="143" cy="93" rx="8" ry="4" fill="#e9b7cc"/>
  <path d="M146 104q9 7 17-1M185 26v-9m-8 1q8-8 16-1" stroke="#7398c7" stroke-width="3" stroke-linecap="round"/>
</svg>
